<?xml version="1.0" standalone="yes"?>
<svg xmlns="http://www.w3.org/2000/svg" width="512" height="512">
<path style="fill:#020202; stroke:none;" d="M0 0L0 512L512 512L512 0L0 0z"/>
<path style="fill:#fd6d7a; stroke:none;" d="M85.6667 17.3333L86.3333 17.6667L85.6667 17.3333z"/>
<path style="fill:#d6d9d2; stroke:none;" d="M87 17.4398C38.8672 24.7842 45.3356 116.469 98 107.674C141.114 100.475 134.612 10.1749 87 17.4398z"/>
<path style="fill:#fd6d7a; stroke:none;" d="M94.6667 17.3333L95.3333 17.6667L94.6667 17.3333z"/>
<path style="fill:#fe4f61; stroke:none;" d="M96 17L97 18L96 17z"/>
<path style="fill:#fd6d7a; stroke:none;" d="M250.667 17.3333L251.333 17.6667L250.667 17.3333z"/>
<path style="fill:#d6d9d2; stroke:none;" d="M252 17.4391C225.337 21.593 221 43.1065 221 66C221 87.8159 232.852 112.011 259 108.568C286.109 104.998 291 83.1615 291 60C291 37.7172 278.609 13.2934 252 17.4391z"/>
<path style="fill:#fd6d7a; stroke:none;" d="M260.667 17.3333L261.333 17.6667L260.667 17.3333M415.667 17.3333L416.333 17.6667L415.667 17.3333z"/>
<path style="fill:#d6d9d2; stroke:none;" d="M417 17.4391C370.642 24.7213 375.384 115.626 425 108.406C451.465 104.555 456 83.7642 456 61C456 38.1794 444.77 13.0768 417 17.4391z"/>
<path style="fill:#fd6d7a; stroke:none;" d="M426 17L427 18L426 17z"/>
<path style="fill:#fe4f61; stroke:none;" d="M80 18L81 19L80 18z"/>
<path style="fill:#fd6d7a; stroke:none;" d="M81 18L82 19L81 18M100 18L101 19L100 18M246 18L247 19L246 18M265 18L266 19L265 18M411 18L412 19L411 18M431 18L432 19L431 18M78 19L79 20L78 19M103 19L104 20L103 19M243 19L244 20L243 19M268 19L269 20L268 19M408 19L409 20L408 19z"/>
<path style="fill:#fe4f61; stroke:none;" d="M75 20L76 21L75 20z"/>
<path style="fill:#fd6d7a; stroke:none;" d="M105 20L106 21L105 20M406 20L407 21L406 20M436 20L437 21L436 20z"/>
<path style="fill:#fe4f61; stroke:none;" d="M73 21L74 22L73 21z"/>
<path style="fill:#fd6d7a; stroke:none;" d="M107 21L108 22L107 21M438 21L439 22L438 21z"/>
<path style="fill:#fe4f61; stroke:none;" d="M109 22L110 23L109 22z"/>
<path style="fill:#fd6d7a; stroke:none;" d="M237 22L238 23L237 22M274 22L275 23L274 22M402 22L403 23L402 22M70 23L71 24L70 23M110 23L111 24L110 23M441 23L442 24L441 23M234 24L235 25L234 24M277 24L278 25L277 24z"/>
<path style="fill:#fe4f61; stroke:none;" d="M113 25L114 26L113 25z"/>
<path style="fill:#fd6d7a; stroke:none;" d="M398 25L399 26L398 25M114 26L115 27L114 26M397 26L398 27L397 26M115 27L116 28L115 27M396 27L397 28L396 27M116 28L117 29L116 28M395 28L396 29L395 28z"/>
<path style="fill:#fe4f61; stroke:none;" d="M117 29L118 30L117 29z"/>
<path style="fill:#fd6d7a; stroke:none;" d="M394 29L395 30L394 29M228 30L229 31L228 30M283 30L284 31L283 30M62 31L63 32L62 31z"/>
<path style="fill:#fe4f61; stroke:none;" d="M227 31L228 32L227 31M61 32L62 33L61 32z"/>
<path style="fill:#fd6d7a; stroke:none;" d="M119 32L120 33L119 32M450 32L451 33L450 32M391 33L392 34L391 33M60 34L61 35L60 34M121 35L122 36L121 35M390 35L391 36L390 35M224 36L225 37L224 36M287 36L288 37L287 36M122 37L123 38L122 37M389 37L390 38L389 37M58 38L59 39L58 38M223 38L224 39L223 38z"/>
<path style="fill:#fe4f61; stroke:none;" d="M288 38L289 39L288 38z"/>
<path style="fill:#fd6d7a; stroke:none;" d="M388 39L389 40L388 39M57 40L58 41L57 40M123 40L124 41L123 40M454 40L455 41L454 40M222 41L223 42L222 41M289 41L290 42L289 41z"/>
<path style="fill:#fe4f61; stroke:none;" d="M124 42L125 43L124 42z"/>
<path style="fill:#fd6d7a; stroke:none;" d="M387 42L388 43L387 42M124 43L125 44L124 43z"/>
<path style="fill:#fe4f61; stroke:none;" d="M455 43L456 44L455 43z"/>
<path style="fill:#fd6d7a; stroke:none;" d="M56 44L57 45L56 44M455 44L456 45L455 44M221 45L222 46L221 45M290 45L291 46L290 45z"/>
<path style="fill:#fe4f61; stroke:none;" d="M125 47L126 48L125 47z"/>
<path style="fill:#fd6d7a; stroke:none;" d="M386 47L387 48L386 47M125 48L125 73L126 73L125 48z"/>
<path style="fill:#fe4f61; stroke:none;" d="M55 49L56 50L55 49M456 49L457 50L456 49z"/>
<path style="fill:#fd6d7a; stroke:none;" d="M55 50L55 75L56 75L55 50M456 50L456 76L457 76L456 50M125 74L125 78L126 78L125 74z"/>
<path style="fill:#fe4f61; stroke:none;" d="M55 75L56 76L55 75M456 76L457 77L456 76M125 78L126 79L125 78z"/>
<path style="fill:#fd6d7a; stroke:none;" d="M386 78L387 79L386 78M221 80L222 81L221 80M290 80L291 81L290 80M56 81L57 82L56 81M455 81L456 82L455 81M124 82L125 83L124 82M387 83L388 84L387 83M222 84L223 85L222 84M289 84L290 85L289 84z"/>
<path style="fill:#fe4f61; stroke:none;" d="M57 85L58 86L57 85z"/>
<path style="fill:#fd6d7a; stroke:none;" d="M123 85L124 86L123 85M454 85L455 86L454 85M388 86L389 87L388 86M58 87L59 88L58 87z"/>
<path style="fill:#fe4f61; stroke:none;" d="M122 88L123 89L122 88z"/>
<path style="fill:#fd6d7a; stroke:none;" d="M389 88L390 89L389 88M59 89L60 90L59 89z"/>
<path style="fill:#fe4f61; stroke:none;" d="M224 89L225 90L224 89z"/>
<path style="fill:#fd6d7a; stroke:none;" d="M121 90L122 91L121 90M390 90L391 91L390 90M60 91L61 92L60 91M451 91L452 92L451 91M226 92L227 93L226 92M285 92L286 93L285 92M119 93L120 94L119 93M62 94L63 95L62 94M449 94L450 95L449 94M63 95L64 96L63 95M228 95L229 96L228 95M283 95L284 96L283 95M282 96L283 97L282 96M395 97L396 98L395 97z"/>
<path style="fill:#fe4f61; stroke:none;" d="M115 98L116 99L115 98z"/>
<path style="fill:#fd6d7a; stroke:none;" d="M396 98L397 99L396 98z"/>
<path style="fill:#fe4f61; stroke:none;" d="M114 99L115 100L114 99z"/>
<path style="fill:#fd6d7a; stroke:none;" d="M397 99L398 100L397 99M68 100L69 101L68 100M233 100L234 101L233 100M278 100L279 101L278 100M69 101L70 102L69 101M111 101L112 102L111 101M234 101L235 102L234 101M277 101L278 102L277 101M442 101L443 102L442 101M110 102L111 103L110 102M401 102L402 103L401 102M441 102L442 103L441 102M72 103L73 104L72 103M237 103L238 104L237 103M274 103L275 104L274 103M74 104L75 105L74 104z"/>
<path style="fill:#fe4f61; stroke:none;" d="M107 104L108 105L107 104z"/>
<path style="fill:#fd6d7a; stroke:none;" d="M272 104L273 105L272 104M404 104L405 105L404 104M76 105L77 106L76 105z"/>
<path style="fill:#fe4f61; stroke:none;" d="M105 105L106 106L105 105z"/>
<path style="fill:#fd6d7a; stroke:none;" d="M241 105L242 106L241 105M270 105L271 106L270 105M406 105L407 106L406 105M78 106L79 107L78 106M102 106L103 107L102 106M243 106L244 107L243 106M268 106L269 107L268 106M433 106L434 107L433 106M81.6667 107.333L82.3333 107.667L81.6667 107.333M99 107L100 108L99 107M246 107L247 108L246 107M265 107L266 108L265 107z"/>
<path style="fill:#fe4f61; stroke:none;" d="M411 107L412 108L411 107z"/>
<path style="fill:#fd6d7a; stroke:none;" d="M412 107L413 108L412 107M430 107L431 108L430 107M86 108L86 109L95 109L86 108M251.667 108.333L252.333 108.667L251.667 108.333M259.667 108.333L260.333 108.667L259.667 108.333M416 108L416 109L419 109L416 108M424.667 108.333L425.333 108.667L424.667 108.333z"/>
<path style="fill:#fe4f61; stroke:none;" d="M426 108L427 109L426 108M52 126L52 127L55 127L52 126z"/>
<path style="fill:#fd6d7a; stroke:none;" d="M17 219C23.0827 219 32.7035 220.806 37.581 216.347C43.4916 210.944 40.288 200.024 41.3002 193C42.954 181.523 49.3807 170.194 58.0394 162.591C79.1141 144.085 102.189 152.7 127 148.786C137.431 147.141 138.999 137.733 139 129C123.345 125.422 107.999 126 92 126C66.7361 126 36.9525 121.943 22.5147 148C11.7416 167.443 17 197.518 17 219z"/>
<path style="fill:#fe4f61; stroke:none;" d="M127 126L127 127L130 127L127 126z"/>
<path style="fill:#fd6d7a; stroke:none;" d="M217 126L217 127L220 127L217 126z"/>
<path style="fill:#d6d9d2; stroke:none;" d="M226 219L286 219C285.943 191.949 297.511 163.503 328 159C322.229 120.498 277.239 126 249 126C238.437 126 227.432 125.088 217 126.924C210.87 128.002 205.879 131.472 200 132.929C196.29 133.848 193.643 130.805 190.17 131.241C185.923 131.774 181.836 138.57 180.073 142C171.499 158.687 197.317 162.554 206 170.184C220.863 183.245 225.947 199.687 226 219z"/>
<path style="fill:#fd6d7a; stroke:none;" d="M292 126L292 127L295 127L292 126M382 126L383 127L382 126z"/>
<path style="fill:#d6d9d2; stroke:none;" d="M391 219L495 219C495 192.034 502.406 154.661 479 135.329C466.966 125.389 452.66 126 438 126C414.831 126 392.441 124.729 370 130.199C365.491 131.298 362.081 127.313 358.004 128.291C352.362 129.644 345.958 138.858 344.115 144C338.458 159.783 362.594 162.798 371 170.184C385.863 183.245 390.947 199.687 391 219z"/>
<path style="fill:#fd6d7a; stroke:none;" d="M459 126L460 127L459 126z"/>
<path style="fill:#fe4f61; stroke:none;" d="M48.6667 127.333L49.3333 127.667L48.6667 127.333M133 127L134 128L133 127z"/>
<path style="fill:#fd6d7a; stroke:none;" d="M213 127L214 128L213 127M298 127L299 128L298 127M360 127L361 128L360 127M377 127L378 128L377 127M463 127L464 128L463 127z"/>
<path style="fill:#fe4f61; stroke:none;" d="M45 128L46 129L45 128M136 128L137 129L136 128z"/>
<path style="fill:#fd6d7a; stroke:none;" d="M210 128L211 129L210 128M301 128L302 129L301 128M374 128L375 129L374 128z"/>
<path style="fill:#fe4f61; stroke:none;" d="M42 129L43 130L42 129M139 129C138.995 137.286 137.043 145.511 128 148.347C120.901 150.574 111.391 149 104 149C83.6966 149 64.4575 151.731 51.2392 169.004C46.0762 175.75 42.0887 184.484 41.1736 193C40.1996 202.065 43.554 212.76 34 218L34 219L121 219C121 191.391 133.186 163.551 164 159C160.794 145.503 151.74 134.498 139 129z"/>
<path style="fill:#fd6d7a; stroke:none;" d="M207 129L208 130L207 129z"/>
<path style="fill:#fe4f61; stroke:none;" d="M304 129L305 130L304 129z"/>
<path style="fill:#fd6d7a; stroke:none;" d="M362 129L363 130L362 129M372 129L373 130L372 129M469 129L470 130L469 129z"/>
<path style="fill:#fe4f61; stroke:none;" d="M40 130L41 131L40 130z"/>
<path style="fill:#fd6d7a; stroke:none;" d="M191 130L192 131L191 130M205 130L206 131L205 130M306 130L307 131L306 130M364 130L365 131L364 130M471 130L472 131L471 130M192 131L193 132L192 131z"/>
<path style="fill:#fe4f61; stroke:none;" d="M203 131L204 132L203 131z"/>
<path style="fill:#fd6d7a; stroke:none;" d="M473 131L474 132L473 131z"/>
<path style="fill:#fe4f61; stroke:none;" d="M37 132L38 133L37 132z"/>
<path style="fill:#fd6d7a; stroke:none;" d="M187 132L188 133L187 132M309 132L310 133L309 132z"/>
<path style="fill:#fe4f61; stroke:none;" d="M35 133L36 134L35 133z"/>
<path style="fill:#fd6d7a; stroke:none;" d="M196 133L196 134L200 134L196 133M311 133L312 134L311 133M476 133L477 134L476 133z"/>
<path style="fill:#fe4f61; stroke:none;" d="M34 134L35 135L34 134z"/>
<path style="fill:#fd6d7a; stroke:none;" d="M312 134L313 135L312 134z"/>
<path style="fill:#fe4f61; stroke:none;" d="M30 137L31 138L30 137z"/>
<path style="fill:#fd6d7a; stroke:none;" d="M316 137L317 138L316 137M481 137L482 138L481 137z"/>
<path style="fill:#fe4f61; stroke:none;" d="M29 138L30 139L29 138z"/>
<path style="fill:#fd6d7a; stroke:none;" d="M317 138L318 139L317 138M482 138L483 139L482 138M318 139L319 140L318 139M483 139L484 140L483 139z"/>
<path style="fill:#fe4f61; stroke:none;" d="M25 143L26 144L25 143z"/>
<path style="fill:#fd6d7a; stroke:none;" d="M321 143L322 144L321 143z"/>
<path style="fill:#fe4f61; stroke:none;" d="M24 144L25 145L24 144M322 144L323 145L322 144z"/>
<path style="fill:#fd6d7a; stroke:none;" d="M487 144L488 145L487 144z"/>
<path style="fill:#fe4f61; stroke:none;" d="M23 146L24 147L23 146z"/>
<path style="fill:#fd6d7a; stroke:none;" d="M323 146L324 147L323 146M178 147L179 148L178 147M324 148L325 149L324 148M343 148L344 149L343 148M179 150L180 151L179 150M325 150L326 151L325 150z"/>
<path style="fill:#fe4f61; stroke:none;" d="M179 151L180 152L179 151z"/>
<path style="fill:#fd6d7a; stroke:none;" d="M344 151L345 152L344 151z"/>
<path style="fill:#fe4f61; stroke:none;" d="M20 152L21 153L20 152z"/>
<path style="fill:#fd6d7a; stroke:none;" d="M326 152L327 153L326 152z"/>
<path style="fill:#fe4f61; stroke:none;" d="M19 154L20 155L19 154z"/>
<path style="fill:#fd6d7a; stroke:none;" d="M180 154L181 155L180 154M327.333 154.667L327.667 155.333L327.333 154.667M492 154L493 155L492 154M345 155L346 156L345 155M493 157L494 158L493 157z"/>
<path style="fill:#fe4f61; stroke:none;" d="M18 158L19 159L18 158z"/>
<path style="fill:#fd6d7a; stroke:none;" d="M181 158L182 159L181 158M328 158L329 159L328 158M346 158L347 159L346 158M186 159L187 160L186 159M324 159L325 160L324 159M189 160L190 161L189 160M321 160L322 161L321 160M354 160L355 161L354 160M192 161L193 162L192 161M318 161L319 162L318 161M194 162L195 163L194 162M316 162L317 163L316 162M359 162L360 163L359 162M494 162L495 163L494 162z"/>
<path style="fill:#fe4f61; stroke:none;" d="M17 163L17 167L18 167L17 163z"/>
<path style="fill:#fd6d7a; stroke:none;" d="M196 163L197 164L196 163M314 163L315 164L314 163M361 163L362 164L361 163M198 164L199 165L198 164M312 164L313 165L312 164M363 164L364 165L363 164M310 165L311 166L310 165M201 166L202 167L201 166M307 167L308 168L307 167M204 168L205 169L204 168M306 168L307 169L306 168M369 168L370 169L369 168M303 170L304 171L303 170M302 171L303 172L302 171M301 172L302 173L301 172M300 173L301 174L300 173M299 174L300 175L299 174M166.667 175.333L167.333 175.667L166.667 175.333z"/>
<path style="fill:#d6d9d2; stroke:none;" d="M168 175.439C121.176 182.794 127.714 273.257 179 265.699C224.328 259.019 217.274 167.699 168 175.439z"/>
<path style="fill:#fd6d7a; stroke:none;" d="M177.667 175.333L178.333 175.667L177.667 175.333z"/>
<path style="fill:#fe4f61; stroke:none;" d="M179 175L180 176L179 175z"/>
<path style="fill:#fd6d7a; stroke:none;" d="M298 175L299 176L298 175M331.667 175.333L332.333 175.667L331.667 175.333z"/>
<path style="fill:#d6d9d2; stroke:none;" d="M333 175.439C285.794 182.87 293.24 274.376 345 265.713C389.684 258.234 382.474 167.651 333 175.439z"/>
<path style="fill:#fd6d7a; stroke:none;" d="M343.667 175.333L344.333 175.667L343.667 175.333M162 176L163 177L162 176M182 176L183 177L182 176M327 176L328 177L327 176M348 176L349 177L348 176z"/>
<path style="fill:#fe4f61; stroke:none;" d="M159 177L160 178L159 177z"/>
<path style="fill:#fd6d7a; stroke:none;" d="M185 177L186 178L185 177M351 177L352 178L351 177M157 178L158 179L157 178M214 178L215 179L214 178M296 178L297 179L296 178M353 178L354 179L353 178M155 179L156 180L155 179M215 179L216 180L215 179M295 179L296 180L295 179M355 179L356 180L355 179M380 179L381 180L380 179M191 180L192 181L191 180M152 181L153 182L152 181z"/>
<path style="fill:#fe4f61; stroke:none;" d="M216 181L217 182L216 181z"/>
<path style="fill:#fd6d7a; stroke:none;" d="M358 181L359 182L358 181M194 182L195 183L194 182M217 182L218 183L217 182M293 182L294 183L293 182M316 182L317 183L316 182M382 182L383 183L382 182M195 183L196 184L195 183M196 184L197 185L196 184M218 184L219 185L218 184M292 184L293 185L292 184M197 185L198 186L197 185M198 186L199 187L198 186M219 186L220 187L219 186z"/>
<path style="fill:#fe4f61; stroke:none;" d="M291 186L292 187L291 186z"/>
<path style="fill:#fd6d7a; stroke:none;" d="M199 187L200 188L199 187z"/>
<path style="fill:#fe4f61; stroke:none;" d="M200 188L201 189L200 188z"/>
<path style="fill:#fd6d7a; stroke:none;" d="M220 188L221 189L220 188M290 188L291 189L290 188M310 188L311 189L310 188M144 189L145 190L144 189M366 189L367 190L366 189z"/>
<path style="fill:#fe4f61; stroke:none;" d="M143 190L144 191L143 190z"/>
<path style="fill:#fd6d7a; stroke:none;" d="M221 190L222 191L221 190M289 190L290 191L289 190M386 190L387 191L386 190M202 191L203 192L202 191M142 192L143 193L142 192M368 192L369 193L368 192M203 193L204 194L203 193M222 193L223 194L222 193M288 193L289 194L288 193M141 194L142 195L141 194z"/>
<path style="fill:#fe4f61; stroke:none;" d="M306 194L307 195L306 194z"/>
<path style="fill:#fd6d7a; stroke:none;" d="M369 194L370 195L369 194M204 195L205 196L204 195M140 196L141 197L140 196M223 196L224 197L223 196M287 196L288 197L287 196M370 196L371 197L370 196M388 196L389 197L388 196M205 197L206 198L205 197z"/>
<path style="fill:#fe4f61; stroke:none;" d="M223 197L224 198L223 197M139 198L140 199L139 198z"/>
<path style="fill:#fd6d7a; stroke:none;" d="M304 199L305 200L304 199M206 200L207 201L206 200M224.333 200.667L224.667 201.333L224.333 200.667M286.333 200.667L286.667 201.333L286.333 200.667M389 200L390 201L389 200M138 202L139 203L138 202z"/>
<path style="fill:#fe4f61; stroke:none;" d="M224 202L225 203L224 202z"/>
<path style="fill:#fd6d7a; stroke:none;" d="M372 202L373 203L372 202M303.333 203.667L303.667 204.333L303.333 203.667z"/>
<path style="fill:#fe4f61; stroke:none;" d="M207 204L208 205L207 204z"/>
<path style="fill:#fd6d7a; stroke:none;" d="M207.333 205.667L207.667 206.333L207.333 205.667M285.333 209.667L285.667 210.333L285.333 209.667z"/>
<path style="fill:#fe4f61; stroke:none;" d="M137 210L137 231L138 231L137 210z"/>
<path style="fill:#fd6d7a; stroke:none;" d="M225 210L225 219L226 219L225 210M390 210L390 219L391 219L390 210M207 234L207 237L208 237L207 234z"/>
<path style="fill:#fe4f61; stroke:none;" d="M207 237L208 238L207 237z"/>
<path style="fill:#fd6d7a; stroke:none;" d="M303 237L304 238L303 237M138 238L139 239L138 238M372 238L373 239L372 238z"/>
<path style="fill:#fe4f61; stroke:none;" d="M138 239L139 240L138 239z"/>
<path style="fill:#fd6d7a; stroke:none;" d="M206.333 240.667L206.667 241.333L206.333 240.667M304 241L305 242L304 241M139 242L140 243L139 242M371 242L372 243L371 242M205 243L206 244L205 243z"/>
<path style="fill:#fe4f61; stroke:none;" d="M205 244L206 245L205 244z"/>
<path style="fill:#fd6d7a; stroke:none;" d="M305 244L306 245L305 244z"/>
<path style="fill:#fe4f61; stroke:none;" d="M140 245L141 246L140 245M370 245L371 246L370 245z"/>
<path style="fill:#fd6d7a; stroke:none;" d="M204 246L205 247L204 246M306 246L307 247L306 246z"/>
<path style="fill:#fe4f61; stroke:none;" d="M141 247L142 248L141 247z"/>
<path style="fill:#fd6d7a; stroke:none;" d="M369 247L370 248L369 247M203 248L204 249L203 248M307 248L308 249L307 248M143 250L144 251L143 250M308 250L309 251L308 250M201 251L202 252L201 251M145 253L146 254L145 253M365 253L366 254L365 253M146 254L147 255L146 254M311 254L312 255L311 254M147 255L148 256L147 255z"/>
<path style="fill:#fe4f61; stroke:none;" d="M198 255L199 256L198 255z"/>
<path style="fill:#fd6d7a; stroke:none;" d="M312 255L313 256L312 255M148 256L149 257L148 256z"/>
<path style="fill:#fe4f61; stroke:none;" d="M197 256L198 257L197 256z"/>
<path style="fill:#fd6d7a; stroke:none;" d="M313 256L314 257L313 256M149 257L150 258L149 257M314 257L315 258L314 257M150 258L151 259L150 258z"/>
<path style="fill:#fe4f61; stroke:none;" d="M315 258L316 259L315 258z"/>
<path style="fill:#fd6d7a; stroke:none;" d="M360 258L361 259L360 258M193 259L194 260L193 259M153 260L154 261L153 260M192 260L193 261L192 260M190 261L191 262L190 261M356 261L357 262L356 261M156 262L157 263L156 262M321 262L322 263L321 262M354 262L355 263L354 262M158 263L159 264L158 263M186 263L187 264L186 263M323 263L324 264L323 263M352 263L353 264L352 263M161 264L162 265L161 264M184 264L185 265L184 264M326 264L327 265L326 264z"/>
<path style="fill:#fe4f61; stroke:none;" d="M350 264L351 265L350 264z"/>
<path style="fill:#fd6d7a; stroke:none;" d="M164 265L165 266L164 265M180.667 265.333L181.333 265.667L180.667 265.333M329 265L330 266L329 265M346 265L347 266L346 265z"/>
<path style="fill:#fe4f61; stroke:none;" d="M169 266L170 267L169 266z"/>
<path style="fill:#fd6d7a; stroke:none;" d="M170 266L170 267L176 267L170 266z"/>
<path style="fill:#fe4f61; stroke:none;" d="M176 266L177 267L176 266z"/>
<path style="fill:#fd6d7a; stroke:none;" d="M334 266L334 267L338 267L334 266M339 266L339 267L342 267L339 266z"/>
<path style="fill:#d6d9d2; stroke:none;" d="M117 292C135.824 305.534 143 322.34 143 345C143 352.074 144.767 362.04 136.985 365.806C126.288 370.981 126 354.994 126 349C126 324.066 113.689 295.554 83 302.899C46.8887 311.541 44.1644 377.791 78 391.073C86.6742 394.478 112.931 396.551 120.996 391.397C126.141 388.108 128.362 378.914 134.105 377.318C140.863 375.44 150 377 157 377L207 377C199.048 342.228 202.285 305.002 238 288C231.962 280.712 221.251 276.506 212 275.289C200.851 273.823 192.631 280.742 182 282.739C161.571 286.578 134.134 277.261 117 292M366 275L367 276L366 275z"/>
<path style="fill:#f8e273; stroke:none;" d="M283 291C287.744 296.828 294.084 300.748 298.572 307C307.803 319.858 313.112 343.404 308.196 358.999C305.711 366.882 298.043 368.093 296 377L372 377C365.066 343.403 366.25 303.381 403 288L403 286C392.916 279.908 381.378 273.138 369 275.225C359.276 276.864 351.45 283.499 341 283.961C321.314 284.83 300.845 280.624 283 291z"/>
<path style="fill:#fd6d7a; stroke:none;" d="M364 276L365 277L364 276M197 277L198 278L197 277z"/>
<path style="fill:#f8e273; stroke:none;" d="M220 277L221 278L220 277z"/>
<path style="fill:#d6d9d2; stroke:none;" d="M363 277L364 278L363 277z"/>
<path style="fill:#fd6d7a; stroke:none;" d="M195 278L196 279L195 278z"/>
<path style="fill:#fe4f61; stroke:none;" d="M360 278L361 279L360 278z"/>
<path style="fill:#d6d9d2; stroke:none;" d="M361 278L362 279L361 278z"/>
<path style="fill:#fd6d7a; stroke:none;" d="M193 279L194 280L193 279M358 279L359 280L358 279z"/>
<path style="fill:#d6d9d2; stroke:none;" d="M359 279L360 280L359 279z"/>
<path style="fill:#fd6d7a; stroke:none;" d="M190 280L191 281L190 280M356 280L357 281L356 280M187 281L188 282L187 281z"/>
<path style="fill:#f8e273; stroke:none;" d="M229 281L230 282L229 281z"/>
<path style="fill:#fd6d7a; stroke:none;" d="M353 281L354 282L353 281M183 282L184 283L183 282M349 282L350 283L349 282z"/>
<path style="fill:#d6d9d2; stroke:none;" d="M350 282L351 283L350 282z"/>
<path style="fill:#fd6d7a; stroke:none;" d="M175 283L175 284L178 284L175 283z"/>
<path style="fill:#fe4f61; stroke:none;" d="M340 283L341 284L340 283z"/>
<path style="fill:#fd6d7a; stroke:none;" d="M341 283L341 284L344 284L341 283z"/>
<path style="fill:#d6d9d2; stroke:none;" d="M344.667 283.333L345.333 283.667L344.667 283.333z"/>
<path style="fill:#fd6d7a; stroke:none;" d="M133 284L134 285L133 284M298.667 284.333L299.333 284.667L298.667 284.333z"/>
<path style="fill:#d6d9d2; stroke:none;" d="M300 284L301 285L300 284z"/>
<path style="fill:#fd6d7a; stroke:none;" d="M129 285L130 286L129 285M294 285L295 286L294 285z"/>
<path style="fill:#d6d9d2; stroke:none;" d="M295 285L296 286L295 285z"/>
<path style="fill:#fd6d7a; stroke:none;" d="M126 286L127 287L126 286M291 286L292 287L291 286z"/>
<path style="fill:#d6d9d2; stroke:none;" d="M292 286L293 287L292 286z"/>
<path style="fill:#fd6d7a; stroke:none;" d="M124 287L125 288L124 287M289 287L290 288L289 287M287 288L288 289L287 288z"/>
<path style="fill:#d6d9d2; stroke:none;" d="M401 288L402 289L401 288z"/>
<path style="fill:#fd6d7a; stroke:none;" d="M120 289L121 290L120 289M234 289L235 290L234 289M285 289L286 290L285 289M399 289L400 290L399 289M232 290L233 291L232 290M397 290L398 291L397 290M230 291L231 292L230 291M282 291L283 292L282 291M395 291L396 292L395 291M283 292L284 293L283 292M119 293L120 294L119 293M392 293L393 294L392 293z"/>
<path style="fill:#d6d9d2; stroke:none;" d="M286 294L287 295L286 294z"/>
<path style="fill:#fd6d7a; stroke:none;" d="M224 295L225 296L224 295M287 295L288 296L287 295M389 295L390 296L389 295M123 296L124 297L123 296M388 296L389 297L388 296z"/>
<path style="fill:#d6d9d2; stroke:none;" d="M290 297L291 298L290 297M291 298L292 299L291 298M292 299L293 300L292 299M293 300L294 301L293 300M294 301L295 302L294 301z"/>
<path style="fill:#fd6d7a; stroke:none;" d="M83.6667 302.333L84.3333 302.667L83.6667 302.333M96.6667 302.333L97.3333 302.667L96.6667 302.333M249 302L250 303L249 302z"/>
<path style="fill:#d6d9d2; stroke:none;" d="M299 367C287.812 361.143 291.125 347.745 290.996 337C290.871 326.539 286.357 316.051 277.996 309.529C262.103 297.132 237.257 300.533 226.468 318C215.03 336.52 217.482 372.879 235 386.61C245.353 394.724 258.708 393 271 393C289.552 393 294.257 383.755 299 367z"/>
<path style="fill:#fd6d7a; stroke:none;" d="M262 302L263 303L262 302z"/>
<path style="fill:#d6d9d2; stroke:none;" d="M295 302L296 303L295 302z"/>
<path style="fill:#fd6d7a; stroke:none;" d="M414.667 302.333L415.333 302.667L414.667 302.333z"/>
<path style="fill:#d6d9d2; stroke:none;" d="M465 367C453.481 363.073 456 350.877 456 341C456 328.378 452.853 316.596 441.999 308.789C426.047 297.313 402.606 301.206 391.951 318.004C381.119 335.081 382.168 370.913 398.04 384.671C408.519 393.755 421.075 393 434 393C438.869 393 445.377 394.109 449.999 392.397C459.087 389.03 463.238 375.513 465 367z"/>
<path style="fill:#fd6d7a; stroke:none;" d="M426.667 302.333L427.333 302.667L426.667 302.333M80 303L81 304L80 303M101 303L102 304L101 303M245 303L246 304L245 303M266 303L267 304L266 303z"/>
<path style="fill:#fe4f61; stroke:none;" d="M410 303L411 304L410 303z"/>
<path style="fill:#fd6d7a; stroke:none;" d="M411 303L412 304L411 303M431 303L432 304L431 303M77 304L78 305L77 304M131 304L132 305L131 304M242 304L243 305L242 304M269 304L270 305L269 304M380 304L381 305L380 304M408 304L409 305L408 304M434 304L435 305L434 304M240 305L241 306L240 305M271 305L272 306L271 305M297 305L298 306L297 305z"/>
<path style="fill:#d6d9d2; stroke:none;" d="M379 305L380 306L379 305z"/>
<path style="fill:#fd6d7a; stroke:none;" d="M436 305L437 306L436 305M238 306L239 307L238 306M273 306L274 307L273 306z"/>
<path style="fill:#d6d9d2; stroke:none;" d="M298 306L299 307L298 306z"/>
<path style="fill:#fd6d7a; stroke:none;" d="M438 306L439 307L438 306M71 307L72 308L71 307M109 307L110 308L109 307M402 307L403 308L402 307z"/>
<path style="fill:#fe4f61; stroke:none;" d="M440 307L441 308L440 307z"/>
<path style="fill:#fd6d7a; stroke:none;" d="M235 308L236 309L235 308M276 308L277 309L276 308M377 308L378 309L377 308M441 308L442 309L441 308M112 309L113 310L112 309M300 309L301 310L300 309M399 309L400 310L399 309z"/>
<path style="fill:#fe4f61; stroke:none;" d="M67 310L68 311L67 310M376 310L377 311L376 310z"/>
<path style="fill:#fd6d7a; stroke:none;" d="M398 310L399 311L398 310M66 311L67 312L66 311M210 311L211 312L210 311M301 311L302 312L301 311z"/>
<path style="fill:#d6d9d2; stroke:none;" d="M375 311L376 312L375 311z"/>
<path style="fill:#fd6d7a; stroke:none;" d="M397 311L398 312L397 311z"/>
<path style="fill:#fe4f61; stroke:none;" d="M445 311L446 312L445 311z"/>
<path style="fill:#fd6d7a; stroke:none;" d="M65 312L66 313L65 312z"/>
<path style="fill:#d6d9d2; stroke:none;" d="M302 312L303 313L302 312z"/>
<path style="fill:#fe4f61; stroke:none;" d="M446 312L447 313L446 312z"/>
<path style="fill:#fd6d7a; stroke:none;" d="M64 313L65 314L64 313z"/>
<path style="fill:#fe4f61; stroke:none;" d="M302 313L303 314L302 313z"/>
<path style="fill:#d6d9d2; stroke:none;" d="M374 313L375 314L374 313z"/>
<path style="fill:#fd6d7a; stroke:none;" d="M395 313L396 314L395 313M117 314L118 315L117 314z"/>
<path style="fill:#d6d9d2; stroke:none;" d="M303 314L304 315L303 314z"/>
<path style="fill:#fd6d7a; stroke:none;" d="M394 314L395 315L394 314M118 315L119 316L118 315M303 315L304 316L303 315z"/>
<path style="fill:#d6d9d2; stroke:none;" d="M373 315L374 316L373 315z"/>
<path style="fill:#fe4f61; stroke:none;" d="M393 315L394 316L393 315z"/>
<path style="fill:#fd6d7a; stroke:none;" d="M227 316L228 317L227 316M284 316L285 317L284 316M449 316L450 317L449 316M61 317L62 318L61 317M207 317L208 318L207 317M304 317L305 318L304 317M450 317L451 318L450 317M120 318L121 319L120 318M139 318L140 319L139 318M372 318L373 319L372 318M391 318L392 319L391 318M225 319L226 320L225 319M286 319L287 320L286 319z"/>
<path style="fill:#d6d9d2; stroke:none;" d="M305 319L306 320L305 319z"/>
<path style="fill:#fd6d7a; stroke:none;" d="M451 319L452 320L451 319z"/>
<path style="fill:#fe4f61; stroke:none;" d="M59 320L60 321L59 320z"/>
<path style="fill:#fd6d7a; stroke:none;" d="M305 320L306 321L305 320z"/>
<path style="fill:#d6d9d2; stroke:none;" d="M371 320L372 321L371 320z"/>
<path style="fill:#fd6d7a; stroke:none;" d="M390 320L391 321L390 320M140 321L141 322L140 321M224 321L225 322L224 321M287 321L288 322L287 321M371 321L372 322L371 321M452 321L453 322L452 321M389 322L390 323L389 322M205 323L206 324L205 323M223 323L224 324L223 323M288 323L289 324L288 323M306 323L307 324L306 323M453 323L454 324L453 323M123 324L124 325L123 324M370 324L371 325L370 324M388 324L389 325L388 324M57 325L58 326L57 325z"/>
<path style="fill:#fe4f61; stroke:none;" d="M370 325L371 326L370 325z"/>
<path style="fill:#fd6d7a; stroke:none;" d="M454 325L455 326L454 325M222 326L223 327L222 326M289 326L290 327L289 326M124 327L125 328L124 327M307.333 327.667L307.667 328.333L307.333 327.667M387 327L388 328L387 327M56 328L57 329L56 328M204 328L205 329L204 328z"/>
<path style="fill:#fe4f61; stroke:none;" d="M221 329L222 330L221 329z"/>
<path style="fill:#fd6d7a; stroke:none;" d="M369.333 329.667L369.667 330.333L369.333 329.667M455 329L456 330L455 329M142 330L143 331L142 330M221 330L222 331L221 330M290 330L291 331L290 330z"/>
<path style="fill:#fe4f61; stroke:none;" d="M125 331L126 332L125 331z"/>
<path style="fill:#fd6d7a; stroke:none;" d="M125 332L126 333L125 332M386 332L386 335L387 335L386 332M55 334L55 361L56 361L55 334z"/>
<path style="fill:#d6d9d2; stroke:none;" d="M308 335L308 359L309 359L308 335z"/>
<path style="fill:#fe4f61; stroke:none;" d="M456.333 335.667L456.667 336.333L456.333 335.667z"/>
<path style="fill:#fd6d7a; stroke:none;" d="M456 337L456 361L457 361L456 337M291 360L292 361L291 360z"/>
<path style="fill:#fe4f61; stroke:none;" d="M55 361L56 362L55 361z"/>
<path style="fill:#fd6d7a; stroke:none;" d="M126 361L127 362L126 361M386 361L386 364L387 364L386 361M457 362L458 363L457 362M127 363L128 364L127 363M306 363L307 364L306 363M369 363L369 366L370 366L369 363M128 364L129 365L128 364M129 365L130 366L129 365M221 365L222 366L221 365M304 365L305 366L304 365M56 366L57 367L56 366M131 366L132 367L131 366M204 366L205 367L204 366M297 366L298 367L297 366M302 366L303 367L302 366z"/>
<path style="fill:#d6d9d2; stroke:none;" d="M369 366L370 367L369 366z"/>
<path style="fill:#fe4f61; stroke:none;" d="M462 366L463 367L462 366z"/>
<path style="fill:#fd6d7a; stroke:none;" d="M387 367L388 368L387 367M222 369L223 370L222 369M370 370L371 371L370 370M388 370L389 371L388 370M205 371L206 372L205 371M58 372L59 373L58 372M59 374L60 375L59 374M371 374L372 375L371 374M60 376L61 377L60 376M391 376L392 377L391 376M226 377L227 378L226 377M392 378L393 379L392 378M62 379L63 380L62 379M393 379L394 380L393 379M229 381L230 382L229 381z"/>
<path style="fill:#fe4f61; stroke:none;" d="M294 381L295 382L294 381z"/>
<path style="fill:#fd6d7a; stroke:none;" d="M230 382L231 383L230 382M293 382L294 383L293 382M231 383L232 384L231 383M232 384L233 385L232 384M292 384L293 385L292 384M233 385L234 386L233 385M291 385L292 386L291 385M69 386L70 387L69 386M400 386L401 387L400 386z"/>
<path style="fill:#fe4f61; stroke:none;" d="M401 387L402 388L401 387z"/>
<path style="fill:#fd6d7a; stroke:none;" d="M72 388L73 389L72 388M289 388L290 389L289 388M403 388L404 389L403 388M74 389L75 390L74 389M239 389L240 390L239 389M288 389L289 390L288 389M405 389L406 390L405 389M76 390L77 391L76 390M241 390L242 391L241 390M287 390L288 391L287 390M407 390L408 391L407 390M244 391L245 392L244 391M286 391L287 392L286 391z"/>
<path style="fill:#fe4f61; stroke:none;" d="M409 391L410 392L409 391z"/>
<path style="fill:#fd6d7a; stroke:none;" d="M410 391L411 392L410 391M82 392L83 393L82 392M247 392L248 393L247 392M285 392L286 393L285 392M413 392L414 393L413 392M87 393L87 394L118 394L87 393M252 393L252 394L283 394L252 393z"/>
<path style="fill:#fe4f61; stroke:none;" d="M283 393L284 394L283 393M418.667 393.333L419.333 393.667L418.667 393.333z"/>
<path style="fill:#fd6d7a; stroke:none;" d="M420 393L420 394L449 394L420 393M51.6667 411.333L52.3333 411.667L51.6667 411.333z"/>
<path style="fill:#d6d9d2; stroke:none;" d="M17 504L165 504C165 481.489 171.072 448.361 157.211 429C151.843 421.501 143.847 415.501 135 412.774C124.607 409.57 112.743 411 102 411C76.1363 411 43.4808 404.709 25.5293 428C10.6982 447.243 17 481.19 17 504z"/>
<path style="fill:#fd6d7a; stroke:none;" d="M129.667 411.333L130.333 411.667L129.667 411.333z"/>
<path style="fill:#fe4f61; stroke:none;" d="M216 411L216 412L219 412L216 411z"/>
<path style="fill:#fd6d7a; stroke:none;" d="M182 504C188.351 504 197.802 505.738 202.697 500.721C208.407 494.869 205.25 484.29 206.3 477C207.989 465.283 215 453.86 224.001 446.326C245.048 428.708 267.838 438.033 292 433.671C302.292 431.812 303.994 422.878 304 414C288.022 410.346 272.349 411 256 411C231.471 411 202.286 406.958 187.88 432C176.601 451.605 182 482.207 182 504z"/>
<path style="fill:#fe4f61; stroke:none;" d="M293 411L293 412L296 412L293 411z"/>
<path style="fill:#fd6d7a; stroke:none;" d="M381 411L382 412L381 411z"/>
<path style="fill:#d6d9d2; stroke:none;" d="M347 504L495 504C495 480.759 501.094 447.835 486.51 428.004C480.903 420.38 473.095 414.994 464 412.428C453.915 409.583 442.394 411 432 411C406.997 411 373.442 404.456 356.043 427.015C340.712 446.893 347 480.418 347 504z"/>
<path style="fill:#fd6d7a; stroke:none;" d="M460 411L461 412L460 411M47 412L48 413L47 412M134 412L135 413L134 412z"/>
<path style="fill:#fe4f61; stroke:none;" d="M212.667 412.333L213.333 412.667L212.667 412.333M298.667 412.333L299.333 412.667L298.667 412.333z"/>
<path style="fill:#fd6d7a; stroke:none;" d="M377 412L378 413L377 412M464 412L465 413L464 412z"/>
<path style="fill:#fe4f61; stroke:none;" d="M209.667 413.333L210.333 413.667L209.667 413.333M301.667 413.333L302.333 413.667L301.667 413.333z"/>
<path style="fill:#fd6d7a; stroke:none;" d="M374 413L375 414L374 413M467 413L468 414L467 413M42 414L43 415L42 414M139 414L140 415L139 414z"/>
<path style="fill:#fe4f61; stroke:none;" d="M207 414L208 415L207 414M304 414C303.942 435.111 287.417 434 271 434C250.035 434 229.53 435.568 215.924 454C210.986 460.69 207.072 468.635 206.174 477C205.143 486.589 208.662 497.969 198 503L198 504L330 504C330 473.409 338.773 429.007 304 414z"/>
<path style="fill:#fd6d7a; stroke:none;" d="M40 415L41 416L40 415M141 415L142 416L141 415z"/>
<path style="fill:#fe4f61; stroke:none;" d="M205 415L206 416L205 415z"/>
<path style="fill:#fd6d7a; stroke:none;" d="M38 416L39 417L38 416M143 416L144 417L143 416z"/>
<path style="fill:#fe4f61; stroke:none;" d="M203 416L204 417L203 416z"/>
<path style="fill:#fd6d7a; stroke:none;" d="M473 416L474 417L473 416M366 417L367 418L366 417M35 418L36 419L35 418M146 418L147 419L146 418z"/>
<path style="fill:#fe4f61; stroke:none;" d="M200 418L201 419L200 418M197 420L198 421L197 420z"/>
<path style="fill:#fd6d7a; stroke:none;" d="M362 420L363 421L362 420M479 420L480 421L479 420M31 421L32 422L31 421M150 421L151 422L150 421z"/>
<path style="fill:#fe4f61; stroke:none;" d="M196 421L197 422L196 421z"/>
<path style="fill:#fd6d7a; stroke:none;" d="M361 421L362 422L361 421M480 421L481 422L480 421M30 422L31 423L30 422M151 422L152 423L151 422z"/>
<path style="fill:#fe4f61; stroke:none;" d="M195 422L196 423L195 422z"/>
<path style="fill:#fd6d7a; stroke:none;" d="M29 423L30 424L29 423M152 423L153 424L152 423z"/>
<path style="fill:#fe4f61; stroke:none;" d="M194 423L195 424L194 423z"/>
<path style="fill:#fd6d7a; stroke:none;" d="M28 424L29 425L28 424M153 424L154 425L153 424z"/>
<path style="fill:#fe4f61; stroke:none;" d="M193 424L194 425L193 424z"/>
<path style="fill:#fd6d7a; stroke:none;" d="M483 424L484 425L483 424M27 425L28 426L27 425M154 425L155 426L154 425z"/>
<path style="fill:#fe4f61; stroke:none;" d="M192 425L193 426L192 425z"/>
<path style="fill:#fd6d7a; stroke:none;" d="M357 425L358 426L357 425M484 425L485 426L484 425M356 426L357 427L356 426M24 429L25 430L24 429M157 429L158 430L157 429z"/>
<path style="fill:#fe4f61; stroke:none;" d="M189 429L190 430L189 429z"/>
<path style="fill:#fd6d7a; stroke:none;" d="M487 429L488 430L487 429z"/>
<path style="fill:#fe4f61; stroke:none;" d="M187 432L188 433L187 432z"/>
<path style="fill:#fd6d7a; stroke:none;" d="M352 432L353 433L352 432M489 432L490 433L489 432z"/>
<path style="fill:#fe4f61; stroke:none;" d="M186 434L187 435L186 434z"/>
<path style="fill:#fd6d7a; stroke:none;" d="M351 434L352 435L351 434M490 434L491 435L490 434z"/>
<path style="fill:#fe4f61; stroke:none;" d="M185 436L186 437L185 436z"/>
<path style="fill:#fd6d7a; stroke:none;" d="M350 436L351 437L350 436M491 436L492 437L491 436M19 439L20 440L19 439M162 439L163 440L162 439z"/>
<path style="fill:#fe4f61; stroke:none;" d="M184 439L185 440L184 439z"/>
<path style="fill:#fd6d7a; stroke:none;" d="M492 439L493 440L492 439z"/>
<path style="fill:#fe4f61; stroke:none;" d="M183.333 442.667L183.667 443.333L183.333 442.667z"/>
<path style="fill:#fd6d7a; stroke:none;" d="M348 442L349 443L348 442M493 442L494 443L493 442M163 443L164 444L163 443M347.333 446.667L347.667 447.333L347.333 446.667z"/>
<path style="fill:#fe4f61; stroke:none;" d="M182 447L182 451L183 451L182 447z"/>
<path style="fill:#fd6d7a; stroke:none;" d="M494.333 447.667L494.667 448.333L494.333 447.667M17.3333 448.667L17.6667 449.333L17.3333 448.667M164.333 448.667L164.667 449.333L164.333 448.667z"/>
</svg>
